<svg width="42" height="42" viewBox="0 0 42 42" fill="none" xmlns="http://www.w3.org/2000/svg">
<path d="M4.12289 27.1132L7.62289 33.1682C7.85525 33.5698 8.23761 33.8627 8.68589 33.9825C9.13417 34.1023 9.61166 34.0391 10.0134 33.8069L12.4564 32.3964C13.4714 33.1962 14.5931 33.8524 15.7726 34.3424V37.1389C15.7726 37.603 15.957 38.0482 16.2852 38.3764C16.6134 38.7045 17.0585 38.8889 17.5226 38.8889H24.5226C24.9868 38.8889 25.4319 38.7045 25.7601 38.3764C26.0883 38.0482 26.2726 37.603 26.2726 37.1389V34.3424C27.4614 33.8475 28.5771 33.1928 29.5889 32.3964L32.0319 33.8069C32.8666 34.2882 33.9411 33.9994 34.4224 33.1682L37.9224 27.1132C38.1527 26.711 38.2148 26.2341 38.0952 25.7864C37.9755 25.3387 37.6839 24.9563 37.2836 24.7227L34.8826 23.3349C35.0702 22.0443 35.0691 20.7332 34.8791 19.4429L37.2801 18.0552C38.1131 17.5739 38.4019 16.4977 37.9189 15.6647L34.4189 9.60967C34.1865 9.20804 33.8042 8.91513 33.3559 8.79535C32.9076 8.67556 32.4301 8.73872 32.0284 8.97092L29.5854 10.3814C28.5749 9.58408 27.4596 8.92929 26.2709 8.43542V5.63892C26.2709 5.17479 26.0865 4.72967 25.7583 4.40148C25.4301 4.07329 24.985 3.88892 24.5209 3.88892H17.5209C17.0568 3.88892 16.6116 4.07329 16.2835 4.40148C15.9553 4.72967 15.7709 5.17479 15.7709 5.63892V8.43542C14.5822 8.93033 13.4665 9.58503 12.4546 10.3814L10.0134 8.97092C9.81453 8.85571 9.59491 8.78084 9.36709 8.7506C9.13928 8.72035 8.90773 8.73532 8.6857 8.79464C8.46367 8.85397 8.25552 8.95649 8.07315 9.09634C7.89078 9.23619 7.73778 9.41063 7.62289 9.60967L4.12289 15.6647C3.89257 16.0668 3.83046 16.5437 3.9501 16.9914C4.06974 17.4392 4.36142 17.8215 4.76164 18.0552L7.16264 19.4429C6.97388 20.7334 6.97388 22.0445 7.16264 23.3349L4.76164 24.7227C3.92864 25.2039 3.63989 26.2802 4.12289 27.1132ZM21.0209 14.3889C24.8814 14.3889 28.0209 17.5284 28.0209 21.3889C28.0209 25.2494 24.8814 28.3889 21.0209 28.3889C17.1604 28.3889 14.0209 25.2494 14.0209 21.3889C14.0209 17.5284 17.1604 14.3889 21.0209 14.3889Z" fill="#D12421"/>
</svg>
